# xmcd
#
# Track frame offsets: 
#        150
#        13735
#        27580
#        40842
#        54330
#        67855
#        82325
#        96507
#        109557
#        123210
#        136835
#        149672
#        163385
#        177437
#        191387
#        205255
#
# Disc length: 2900 seconds
#
# Revision: 4
# Processed by: cddbd v1.5.2PL0 Copyright (c) Steve Scherf et al.
# Submitted via: ExactAudioCopy v0.99pb4
#
DISCID=e70b5210
DTITLE=Leadbelly - Leadbelly
DYEAR=1988
DGENRE=Blues
TTITLE0=Roberta (Part I)
TTITLE1=Roberta (Part II)
TTITLE2=Packin' Trunk Blues
TTITLE3=C. C. Rider
TTITLE4=You Can't Lose Me, Charlie
TTITLE5=Black Snake Moan
TTITLE6=Alberta
TTITLE7=Baby Don't You Love Me No More
TTITLE8=Death Letter Blues (Part I)
TTITLE9=Death Letter Blues (Part II)
TTITLE10=Kansas City Papa
TTITLE11=Red River
TTITLE12=Blind Lemon
TTITLE13=Mister Tom Hughes's Town
TTITLE14=Match Box Blues
TTITLE15=Bull Cow
EXTD=
EXTT0=
EXTT1=
EXTT2=
EXTT3=
EXTT4=
EXTT5=
EXTT6=
EXTT7=
EXTT8=
EXTT9=
EXTT10=
EXTT11=
EXTT12=
EXTT13=
EXTT14=
EXTT15=
PLAYORDER=
